<svg xmlns="http://www.w3.org/2000/svg" viewBox="0 0 841.9 595.3">
    <defs>
        <symbol id="door">
            <rect x="0" y="0" width="30" height="60" stroke-width="2px" stroke="#000000" fill="transparent"/>
            <rect x="5" y="5" width="20" height="30" stroke-width="1px" stroke="#000000" fill="cyan"/>
        </symbol>
        <symbol id="door2">
            <use href="#door" x="0" y="0"/>
            <use href="#door" x="30" y="0"/>
        </symbol>
        <symbol id="smallwindow">
            <rect x="0" y="5" width="20" height="30" rx="5" stroke-width="1px" stroke="#000000" fill="cyan"/>
        </symbol>
        <symbol id="window">
            <rect x="0" y="5" width="50" height="30" rx="5" stroke-width="1px" stroke="#000000" fill="cyan"/>
        </symbol>
        <symbol id="wheel">
            <circle cx="15" cy="8" r="8" fill="#888888"/>
            <circle cx="15" cy="8" r="2" fill="#000000"/>
        </symbol>
        <symbol id="bogie">
            <rect x="0" y="0" width="48" height="5" fill="#000000"/>
            <use href="#wheel" x="0" y="5"/>
            <use href="#wheel" x="20" y="5"/>
        </symbol>
        <symbol id="walkway">
            <rect x="0" y="20" width="5" height="60" fill="#666666"/>
        </symbol>
    </defs>
    <g fill="#ffffff" stroke="#000000">
        <use href="#bogie" x="20" y="95"/>
        <use href="#bogie" x="362" y="95"/>
        <use href="#walkway" x="420"/>

        <g transform="translate(10,10)">
            <path stroke-width="3px" d="M0 85 h410 v-85 h-350 C 0 0, 0 60, 0 70 L0 85"/>
        </g>

        <!-- drivers cab -->
        <use href="#door" x="35" y="20"/>

        <!-- passengers -->
        <use href="#smallwindow" x="68" y="20"/>
        <use href="#door2" x="90" y="20"/>
        <use href="#window" x="160" y="20"/>
        <use href="#window" x="160" y="20"/>
        <use href="#window" x="220" y="20"/>
        <use href="#door2" x="280" y="20"/>
        <use href="#window" x="350" y="20"/>
    </g>
</svg>
